<svg id="Capa_1" data-name="Capa 1" xmlns="http://www.w3.org/2000/svg" viewBox="0 0 415.4 94.86">
<defs><style>.cls-1{fill:#e20613;}.cls-2{fill:#1d1d1b;}</style></defs>
<path class="cls-1" d="M86.31,40.05V54.32H135.4a7.14,7.14,0,0,0,7.13-7.14h0a7.13,7.13,0,0,0-7.13-7.13Z"/>
<path class="cls-2" d="M44.06,23.28a25.43,25.43,0,0,1,9.69,10,29.34,29.34,0,0,1,3.51,14.39v2.19a29.27,29.27,0,0,1-3.49,14.36,25.45,25.45,0,0,1-9.61,9.94,26.8,26.8,0,0,1-13.78,3.59H10.91v-58H30A27.51,27.51,0,0,1,44.06,23.28ZM42,47.55q0-7.81-3-11.82t-8.89-4H25.85v34h4.53a10.09,10.09,0,0,0,8.57-4c2-2.65,3-6.63,3-11.91Z"/>
<path class="cls-2" d="M75.25,17.27a7,7,0,0,1,2.82,2.55,6.84,6.84,0,0,1,1,3.7,7,7,0,0,1-1,3.75,6.84,6.84,0,0,1-2.82,2.55,9.78,9.78,0,0,1-8.24,0,6.84,6.84,0,0,1-3.84-6.3,6.84,6.84,0,0,1,1-3.7A7,7,0,0,1,67,17.27a9,9,0,0,1,4.13-.92A8.92,8.92,0,0,1,75.25,17.27ZM64,77.71V34.6H78.45V77.71Z"/>
<path class="cls-2" d="M187.43,16.51v61.2h-12.9l-.72-4.78q-4.12,5.58-10.34,5.58a14.9,14.9,0,0,1-9.15-2.79A17,17,0,0,1,148.67,68a31.35,31.35,0,0,1-1.9-11.32v-.83a32.81,32.81,0,0,1,1.88-11.62,16.4,16.4,0,0,1,5.65-7.69,15.33,15.33,0,0,1,9.25-2.73A12,12,0,0,1,173,38.34V16.51ZM170.67,66.19A5.8,5.8,0,0,0,173,63.8V48.62q-1.6-3.34-5.81-3.34-6.09,0-6.09,10.56v.83a17.69,17.69,0,0,0,1.34,7.63A4.78,4.78,0,0,0,167.12,67,7.2,7.2,0,0,0,170.67,66.19Z"/>
<path class="cls-2" d="M206.46,17.27a7.06,7.06,0,0,1,2.83,2.55,6.84,6.84,0,0,1,1,3.7,7.1,7.1,0,0,1-1,3.75,6.81,6.81,0,0,1-2.83,2.55,9.76,9.76,0,0,1-8.23,0,6.82,6.82,0,0,1-3.85-6.3,6.84,6.84,0,0,1,1-3.7,7,7,0,0,1,2.83-2.55,9,9,0,0,1,4.12-.92A8.89,8.89,0,0,1,206.46,17.27ZM195.24,77.71V34.6h14.43V77.71Z"/>
<path class="cls-2" d="M241.68,66.67v10.6a24.11,24.11,0,0,1-7.9,1.24q-7,0-10.59-3.31T219.6,64.84V44.92h-5.13V34.6h5.13V23.76H234V34.6h7V44.92h-7V62.65a7,7,0,0,0,.36,2.53,2.2,2.2,0,0,0,1.28,1.27,7.18,7.18,0,0,0,2.68.38A23.35,23.35,0,0,0,241.68,66.67Z"/>
<path class="cls-2" d="M246.58,44.4a18,18,0,0,1,7.18-7.79,24.83,24.83,0,0,1,22.95,0,18,18,0,0,1,7.17,7.77,25.56,25.56,0,0,1,2.43,11.38v.83A25.44,25.44,0,0,1,283.88,68a18.14,18.14,0,0,1-7.15,7.75,24.83,24.83,0,0,1-23,0,18.13,18.13,0,0,1-7.2-7.75,25.57,25.57,0,0,1-2.42-11.36v-.83A25.73,25.73,0,0,1,246.58,44.4ZM260,64.26q1.47,2.68,5.31,2.69c2.49,0,4.22-.9,5.21-2.71A16.1,16.1,0,0,0,272,56.59v-.83a16.26,16.26,0,0,0-1.48-7.63q-1.49-2.77-5.29-2.77T260,48.15a16.43,16.43,0,0,0-1.48,7.61v.83A16.38,16.38,0,0,0,260,64.26Z"/>
<path class="cls-2" d="M319,34.24l-.24,14-1.12-.08C316.13,48,315,48,314.23,48a13,13,0,0,0-5.15.85,5.5,5.5,0,0,0-2.82,2.65V77.71H291.91V34.6H305.3l.48,5.7a12.6,12.6,0,0,1,4-4.82,9.33,9.33,0,0,1,5.43-1.68A13.84,13.84,0,0,1,319,34.24Z"/>
<path class="cls-2" d="M363.23,60.94H336.91a7.84,7.84,0,0,0,3.14,4.44A9.89,9.89,0,0,0,345.76,67a15.58,15.58,0,0,0,5.47-1,10.34,10.34,0,0,0,4.39-3.1L362,71.21A15.51,15.51,0,0,1,358,74.78a22.68,22.68,0,0,1-5.91,2.69,25.07,25.07,0,0,1-7.33,1,24.63,24.63,0,0,1-12.14-2.87A19.84,19.84,0,0,1,324.79,68a20.82,20.82,0,0,1-2.71-10.42V56.07a26.63,26.63,0,0,1,2.33-11.29,18.2,18.2,0,0,1,7.09-8,21.87,21.87,0,0,1,11.78-3,21.43,21.43,0,0,1,10.59,2.51,16.86,16.86,0,0,1,6.93,7.25,24.44,24.44,0,0,1,2.43,11.28ZM343.16,45.36a5.5,5.5,0,0,0-4.45,1.75,9.56,9.56,0,0,0-2,4.78h12.5V50.74Q349.4,45.36,343.16,45.36Z"/>
<path class="cls-2" d="M371.24,56.45a10.63,10.63,0,0,1-4.17-8.74,12.17,12.17,0,0,1,2.15-7,14.84,14.84,0,0,1,6.23-5.06,22.88,22.88,0,0,1,9.69-1.89,27.48,27.48,0,0,1,10.24,1.76,15,15,0,0,1,6.75,5A12.25,12.25,0,0,1,404.49,48H390.11a4.75,4.75,0,0,0-1.1-3.53c-.74-.7-2-1.06-3.91-1.06a5.49,5.49,0,0,0-3.18.92,2.9,2.9,0,0,0-1.34,2.55q0,3.15,6.85,4.22A40.08,40.08,0,0,1,396,53.31a14.54,14.54,0,0,1,6,4.32,11.39,11.39,0,0,1,2.34,7.45A11,11,0,0,1,402,72a15.7,15.7,0,0,1-6.73,4.8,27.05,27.05,0,0,1-10.14,1.76,23.14,23.14,0,0,1-10.39-2.18A16.72,16.72,0,0,1,368,70.76a12.27,12.27,0,0,1-2.31-7h13.34a4.65,4.65,0,0,0,1.77,3.79,7.59,7.59,0,0,0,4.68,1.27,6.41,6.41,0,0,0,3.75-.93,3,3,0,0,0,1.3-2.53,2.1,2.1,0,0,0-.74-1.62,7.44,7.44,0,0,0-2.48-1.23,52.23,52.23,0,0,0-5.07-1.3A26.23,26.23,0,0,1,371.24,56.45Z"/>
<path class="cls-1" d="M86.31,16.51V30.78H135.4a7.14,7.14,0,0,0,7.13-7.14h0a7.13,7.13,0,0,0-7.13-7.13Z"/><path class="cls-1" d="M86.31,63.44V77.71H135.4a7.14,7.14,0,0,0,7.13-7.14h0a7.13,7.13,0,0,0-7.13-7.13Z"/>
</svg>