<svg id="Capa_1" data-name="Capa 1" xmlns="http://www.w3.org/2000/svg" viewBox="0 0 423.55 87.21"><defs><style>.cls-1{fill:#e20613;}.cls-2{fill:#1d1d1b;}</style></defs><path class="cls-1" d="M145.61,50.35V36.08H96.52a7.14,7.14,0,0,0-7.14,7.13h0a7.14,7.14,0,0,0,7.14,7.14Z"/><path class="cls-2" d="M48.13,19.46a25.46,25.46,0,0,1,9.7,10,29.34,29.34,0,0,1,3.5,14.39V46a29.4,29.4,0,0,1-3.48,14.36,25.41,25.41,0,0,1-9.62,9.94,26.77,26.77,0,0,1-13.78,3.59H15v-58H34.09A27.46,27.46,0,0,1,48.13,19.46ZM46,43.73q0-7.81-3-11.82t-8.9-4H29.93v34h4.52a10.11,10.11,0,0,0,8.58-4q3-4,3-11.91Z"/><path class="cls-2" d="M79.32,13.45A7,7,0,0,1,82.15,16a6.84,6.84,0,0,1,1,3.7,7.1,7.1,0,0,1-1,3.75A6.81,6.81,0,0,1,79.34,26a9.76,9.76,0,0,1-8.23,0,7,7,0,0,1-2.82-2.55,6.86,6.86,0,0,1-1-3.75,6.76,6.76,0,0,1,1-3.7,7,7,0,0,1,2.82-2.55,9,9,0,0,1,4.13-.92A8.88,8.88,0,0,1,79.32,13.45ZM68.11,73.89V30.78H82.53V73.89Z"/><path class="cls-2" d="M191.51,12.69v61.2h-12.9l-.72-4.78q-4.14,5.58-10.34,5.57a15,15,0,0,1-9.16-2.78,17,17,0,0,1-5.64-7.73,31.34,31.34,0,0,1-1.91-11.32V52a32.56,32.56,0,0,1,1.89-11.61,16.31,16.31,0,0,1,5.64-7.69A15.38,15.38,0,0,1,167.63,30a11.94,11.94,0,0,1,9.45,4.54V12.69ZM174.74,62.37A5.8,5.8,0,0,0,177.08,60V44.8c-1.06-2.23-3-3.34-5.8-3.34-4.07,0-6.09,3.51-6.09,10.55v.84a17.54,17.54,0,0,0,1.34,7.63,4.77,4.77,0,0,0,4.67,2.73A7.13,7.13,0,0,0,174.74,62.37Z"/><path class="cls-2" d="M210.54,13.45A7,7,0,0,1,213.36,16a6.84,6.84,0,0,1,1,3.7,7,7,0,0,1-1,3.75A6.84,6.84,0,0,1,210.56,26a9.78,9.78,0,0,1-8.24,0,6.84,6.84,0,0,1-3.84-6.3,6.84,6.84,0,0,1,1-3.7,7,7,0,0,1,2.82-2.55,9,9,0,0,1,4.13-.92A8.92,8.92,0,0,1,210.54,13.45ZM199.32,73.89V30.78h14.42V73.89Z"/><path class="cls-2" d="M245.75,62.85v10.6a24.09,24.09,0,0,1-7.89,1.23q-7,0-10.6-3.3T223.68,61V41.1h-5.13V30.78h5.13V19.94h14.38V30.78h7V41.1h-7V58.83a7,7,0,0,0,.36,2.53,2.25,2.25,0,0,0,1.28,1.27,7.46,7.46,0,0,0,2.69.38A23.19,23.19,0,0,0,245.75,62.85Z"/><path class="cls-2" d="M250.66,40.58a18.06,18.06,0,0,1,7.17-7.79,24.85,24.85,0,0,1,23,0A18.07,18.07,0,0,1,288,40.56a25.68,25.68,0,0,1,2.42,11.37v.84A25.57,25.57,0,0,1,288,64.13a18.2,18.2,0,0,1-7.15,7.75,22.07,22.07,0,0,1-11.46,2.8,22.3,22.3,0,0,1-11.5-2.8,18.11,18.11,0,0,1-7.19-7.75,25.44,25.44,0,0,1-2.42-11.36v-.84A25.54,25.54,0,0,1,250.66,40.58ZM264,60.44q1.47,2.69,5.31,2.69t5.21-2.71A16.13,16.13,0,0,0,276,52.77v-.84a16.31,16.31,0,0,0-1.48-7.63q-1.49-2.76-5.29-2.76t-5.21,2.78a16.33,16.33,0,0,0-1.48,7.61v.84A16.38,16.38,0,0,0,264,60.44Z"/><path class="cls-2" d="M323.11,30.42l-.24,14-1.12-.08c-1.55-.16-2.7-.23-3.44-.23a12.94,12.94,0,0,0-5.15.85,5.52,5.52,0,0,0-2.83,2.65V73.89H296V30.78h13.38l.48,5.69a12.77,12.77,0,0,1,4-4.82A9.37,9.37,0,0,1,319.31,30,13.71,13.71,0,0,1,323.11,30.42Z"/><path class="cls-2" d="M367.3,57.11H341a7.85,7.85,0,0,0,3.15,4.45,9.84,9.84,0,0,0,5.7,1.57,15.54,15.54,0,0,0,5.47-1,10.22,10.22,0,0,0,4.39-3.1l6.37,8.32A15.56,15.56,0,0,1,362.11,71a22.38,22.38,0,0,1-5.91,2.69,25,25,0,0,1-7.33,1,24.68,24.68,0,0,1-12.14-2.86,19.91,19.91,0,0,1-7.87-7.67,20.92,20.92,0,0,1-2.7-10.42V52.25A26.63,26.63,0,0,1,328.48,41a18.26,18.26,0,0,1,7.09-8,21.89,21.89,0,0,1,11.78-3A21.5,21.5,0,0,1,358,32.49a16.92,16.92,0,0,1,6.93,7.25A24.57,24.57,0,0,1,367.3,51ZM347.23,41.54a5.5,5.5,0,0,0-4.45,1.75,9.56,9.56,0,0,0-2,4.78h12.5V46.91Q353.49,41.54,347.23,41.54Z"/><path class="cls-2" d="M375.32,52.63a10.64,10.64,0,0,1-4.17-8.74,12.14,12.14,0,0,1,2.14-7,14.9,14.9,0,0,1,6.23-5.06,23,23,0,0,1,9.7-1.89,27.6,27.6,0,0,1,10.23,1.75,15.08,15.08,0,0,1,6.75,5,12.24,12.24,0,0,1,2.37,7.47H394.18a4.7,4.7,0,0,0-1.1-3.52c-.73-.7-2-1.06-3.9-1.06a5.54,5.54,0,0,0-3.19.92,2.93,2.93,0,0,0-1.34,2.55q0,3.15,6.85,4.22a40.2,40.2,0,0,1,8.56,2.21,14.44,14.44,0,0,1,6,4.33,11.34,11.34,0,0,1,2.35,7.45A10.9,10.9,0,0,1,406,68.13a15.64,15.64,0,0,1-6.73,4.8,27,27,0,0,1-10.13,1.75,23.18,23.18,0,0,1-10.4-2.17,16.88,16.88,0,0,1-6.69-5.58,12.22,12.22,0,0,1-2.3-7h13.34a4.66,4.66,0,0,0,1.76,3.79A7.6,7.6,0,0,0,389.58,65a6.35,6.35,0,0,0,3.74-.93,3,3,0,0,0,1.31-2.53,2.08,2.08,0,0,0-.75-1.62,7.16,7.16,0,0,0-2.48-1.23,50.72,50.72,0,0,0-5.07-1.3A26.18,26.18,0,0,1,375.32,52.63Z"/><path class="cls-1" d="M145.61,73.89V59.62H96.52a7.14,7.14,0,0,0-7.14,7.13h0a7.14,7.14,0,0,0,7.14,7.14Z"/><path class="cls-1" d="M145.61,27V12.69H96.52a7.14,7.14,0,0,0-7.14,7.13h0A7.14,7.14,0,0,0,96.52,27Z"/></svg>